<svg xmlns="http://www.w3.org/2000/svg" viewBox="0 0 80 80"><circle cx="40" cy="40" r="38" fill="#f0f9ff" stroke="#0284c7" stroke-width="2.5"/><circle cx="40" cy="34" r="13" fill="#e5c298"/><path d="M28 26 C30 18 42 16 52 24 C50 20 44 18 38 19 C32 20 29 23 28 26 Z" fill="#0f172a"/><path d="M25 34 C25 24 31 18 40 18 C49 18 55 24 55 34" fill="none" stroke="#0284c7" stroke-width="3"/><rect x="23" y="30" width="5" height="9" rx="2" fill="#0284c7"/><rect x="52" y="30" width="5" height="9" rx="2" fill="#0284c7"/><path d="M22 66 C22 52 30 48 40 48 C50 48 58 52 58 66 Z" fill="#0284c7"/><path d="M52 54 L49 56 L52 58 M56 54 L59 56 L56 58" stroke="#ffffff" stroke-width="2" fill="none" stroke-linecap="round"/></svg>