<svg xmlns="http://www.w3.org/2000/svg" viewBox="0 0 80 80"><circle cx="40" cy="40" r="38" fill="#f0fdf4" stroke="#059669" stroke-width="2.5"/><circle cx="40" cy="34" r="13" fill="#c68642"/><path d="M28 25 C30 18 42 16 52 22 C55 26 56 32 54 35 C52 38 48 30 40 30 C32 30 28 32 28 25 Z" fill="#18181b"/><path d="M52 28 C58 30 62 38 58 44 C56 46 54 44 54 40 Z" fill="#18181b"/><path d="M22 66 C22 52 30 48 40 48 C50 48 58 52 58 66 Z" fill="#059669"/><rect x="52" y="47" width="8" height="13" rx="2" fill="#ffffff" stroke="#059669" stroke-width="1.5"/></svg>